<svg width="55" height="56" viewBox="0 0 55 56" fill="none" xmlns="http://www.w3.org/2000/svg">
<path d="M55.0002 48.6672C54.7853 51.6597 53.4696 54.0424 50.5941 55.2981C47.8065 56.5175 45.0872 56.1747 42.8988 54.0589C38.6034 49.9064 34.3797 45.6648 30.3057 41.2915C29.345 40.2599 28.9054 38.5989 28.5667 37.1455C27.9512 34.4892 26.6616 32.3932 24.6621 30.5575C22.0634 28.1714 19.7024 25.525 17.1525 23.0829C16.5435 22.4996 15.6284 22.0777 14.7947 21.9228C12.6715 21.5307 10.4928 21.4417 8.37932 21.0066C7.601 20.8452 6.68591 20.219 6.28535 19.5335C4.32491 16.2016 2.55008 12.7609 0.64174 9.39601C-0.0323673 8.20957 0.0457901 7.30985 1.04881 6.3574C2.70314 4.78866 4.30862 3.1606 5.86526 1.49299C6.79663 0.494406 7.70521 0.33951 8.88083 1.01842C12.2644 2.96286 15.7033 4.80844 19.0511 6.8122C19.6796 7.18791 20.1746 8.07115 20.383 8.81927C20.7184 10.0156 20.9301 11.3009 20.8975 12.5368C20.8096 15.7665 22.236 18.1196 24.6393 20.074C25.6456 20.8913 26.5737 21.8405 27.3911 22.8489C30.436 26.5928 34.1452 29.1799 38.9454 30.0796C39.626 30.2082 40.3131 30.7322 40.8309 31.2463C44.7974 35.1945 48.7118 39.1987 52.6652 43.1601C54.1698 44.6663 54.8927 46.4789 55.0002 48.6705V48.6672ZM17.3283 8.96757C15.5437 7.94921 13.7722 6.93414 12.0006 5.92896C7.64008 3.45062 7.66288 3.47369 4.14905 7.05938C3.37725 7.84704 3.19814 8.45345 3.78757 9.45203C5.11625 11.6997 6.31466 14.0231 7.58146 16.307C7.88432 16.8508 8.2458 17.3649 8.45748 17.6978C11.4437 14.7614 14.3225 11.9304 17.3316 8.96757H17.3283ZM36.8709 35.0693C34.3927 36.7204 34.3829 36.8456 36.1024 38.622C40.2545 42.9097 44.4001 47.2039 48.5327 51.5147C49.2687 52.2825 49.8679 52.8955 50.91 51.8508C51.9065 50.8555 51.4864 50.2228 50.7048 49.4186C47.7869 46.4294 44.9114 43.3974 42.013 40.3852C40.2903 38.5956 38.5611 36.816 36.8709 35.066V35.0693ZM18.162 20.4991C21.8452 24.2298 25.3297 27.7595 28.7328 31.2034C29.319 30.6926 30.1201 29.9972 30.703 29.4897C27.1013 25.8018 23.6298 22.2491 20.0769 18.6107C19.4093 19.2698 18.6538 20.0147 18.162 20.4991ZM48.4741 52.9252C43.5078 47.784 38.7435 42.8503 33.9303 37.864C33.1031 38.6582 31.7549 39.034 33.051 40.339C36.8384 44.1554 40.6127 47.9883 44.4164 51.7882C45.4129 52.7835 46.6146 53.347 48.4708 52.9252H48.4741ZM38.7532 33.1413C37.392 33.751 37.5385 34.3904 38.3852 35.2604C42.5439 39.5283 46.6667 43.8292 50.8057 48.1168C51.1542 48.476 51.5287 48.8089 52.0498 49.3C52.3917 47.372 51.7306 46.1493 50.6429 45.0551C47.2398 41.6375 43.8563 38.2034 40.4629 34.7792C39.8995 34.2124 39.3101 33.6719 38.7532 33.1413ZM10.3723 18.4624C12.9906 18.7821 15.8824 20.1959 17.9178 16.9431C19.2399 14.8306 17.8461 12.807 17.9341 10.5066C15.2767 13.3014 12.8441 15.8621 10.3723 18.4624ZM31.6572 37.8014C33.4711 35.9789 35.2687 34.1794 37.011 32.4294C33.6763 30.7981 33.1259 30.8211 31.2762 32.8117C29.4623 34.7628 31.6377 36.259 31.6572 37.8014Z" fill="#01A3D6"/>
<path d="M28.9572 21.7382C28.319 20.8616 27.8793 20.2552 27.2573 19.4016C28.0845 18.5579 29.0028 17.5132 30.0319 16.597C30.9503 15.7797 31.1554 14.8865 30.9991 13.6869C29.8495 4.88088 38.2319 -2.1356 46.5948 0.599808C48.9395 1.3677 49.1642 2.25423 47.448 4.00753C45.849 5.63889 44.2533 7.27354 42.6283 8.87523C41.9672 9.52777 41.85 10.0221 42.5729 10.7702C43.3936 11.6205 44.0416 12.6422 44.973 13.8649C47.2982 11.4393 49.1153 9.508 50.9748 7.61629C52.6682 5.88936 53.6647 6.14642 54.3975 8.4402C57.0581 16.7782 50.3789 25.2613 41.8109 24.2133C39.6355 23.9463 38.6846 25.169 37.4862 26.3686C36.1217 27.733 35.5518 27.7363 33.8323 26.283C35.4215 24.6615 36.9391 22.9708 38.6325 21.4812C39.0526 21.1121 40.0686 21.2406 40.7558 21.3955C47.2526 22.8621 53.1665 17.3682 51.9518 10.5231C50.5775 11.9072 49.34 13.1497 48.1058 14.3922C45.8913 16.6201 44.5268 16.6299 42.3384 14.4317C41.6871 13.7759 41.026 13.1299 40.391 12.4576C38.7106 10.6911 38.7074 9.10263 40.4106 7.3032C41.6448 6.00141 42.9149 4.73587 44.1621 3.44397C44.2272 3.37806 44.224 3.24953 44.2533 3.14736C40.2575 1.76647 35.2164 5.07862 34.1156 9.2839C33.689 10.9153 33.7379 12.7443 33.9235 14.4449C34.0635 15.7203 33.9007 16.6266 32.9758 17.5165C31.6537 18.7886 30.439 20.1761 28.9605 21.7448L28.9572 21.7382Z" fill="#01A3D6"/>
<path d="M3.07766 44.976C4.51706 43.5325 5.72524 42.3098 6.93994 41.097C9.08601 38.9548 10.4961 38.9449 12.5933 41.0508C13.3228 41.7825 14.062 42.5042 14.7687 43.2556C16.2537 44.8343 16.2895 46.4755 14.785 48.0146C13.3912 49.4416 11.9127 50.7829 10.6003 52.3484C13.541 53.0767 16.0322 52.2989 18.162 50.46C21.0115 48.0014 21.9201 44.7782 21.1581 41.1365C20.8747 39.7754 21.1906 38.8823 22.1318 37.9397C23.2716 36.7961 24.242 35.4811 25.3037 34.2156C27.0524 36.1831 27.1306 36.951 25.727 38.1902C24.3462 39.4063 23.9261 40.6685 24.0987 42.5932C24.8705 51.1751 15.9313 57.8357 7.9918 54.7509C6.21698 54.0621 5.98576 53.1097 7.32095 51.7156C8.97528 49.9887 10.6492 48.2749 12.3719 46.6205C13.1437 45.879 13.1307 45.3352 12.3849 44.6036C9.21953 41.4924 10.2095 41.7594 7.42191 44.452C6.13231 45.6977 4.9111 47.016 3.62476 48.265C2.3775 49.4746 1.50149 49.2537 0.830634 47.6158C-2.44546 39.6205 4.41285 30.2575 12.9743 31.2001C14.7622 31.3978 16.0029 31.0814 17.032 29.6907C17.5531 28.9887 18.0611 28.2801 18.4942 27.6902C21.0245 29.1666 21.0734 29.4797 19.4647 31.1177C19.3507 31.233 19.2237 31.3418 19.1227 31.467C17.4749 33.4708 15.7782 34.4826 12.8017 34.1134C6.725 33.3587 2.01276 38.6944 3.07766 44.9694V44.976Z" fill="#01A3D6"/>
<path d="M19.1126 44.2873C18.7088 39.268 16.1589 36.7073 11.3262 36.2261C13.1824 35.1583 15.7193 35.9196 17.5169 37.6498C19.3308 39.3965 20.2101 42.155 19.1126 44.2873Z" fill="#01A3D6"/>
<path d="M43.5174 19.8532C40.9578 20.1795 39.1439 19.3786 37.5872 17.8593C35.9427 16.2543 34.9983 14.3725 35.4053 11.647C36.4181 13.6409 36.949 15.6215 38.1962 16.8805C39.463 18.1625 41.43 18.7393 43.5207 19.8532H43.5174Z" fill="#01A3D6"/>
</svg>
