<svg width="61" height="63" viewBox="0 0 61 63" fill="none" xmlns="http://www.w3.org/2000/svg">
<path d="M9.23564 28.8219C11.1259 30.1781 12.663 31.0524 13.9117 32.2253C17.1712 35.3002 20.1982 38.614 23.5179 41.6164C25.4857 43.3948 26.4071 45.2841 26.1358 47.9198C25.9808 49.3997 25.4598 51.3189 28.082 51.5449C28.3791 51.5705 28.7839 52.5727 28.8054 53.1314C28.8872 55.5368 28.814 57.9422 28.8571 60.3475C28.8829 61.8274 28.1165 62.369 26.7429 62.369C21.886 62.3605 17.0334 62.3562 12.1765 62.369C10.7039 62.369 10.1614 61.644 10.1872 60.2452C10.2303 58.1213 10.1872 55.9974 10.2001 53.8735C10.2131 51.788 10.2217 51.788 12.2368 50.8028C9.14522 47.7791 6.18715 44.7169 3.03531 41.8595C0.860894 39.8977 -0.12513 37.7141 0.012655 34.7671C0.210721 30.6004 -0.0131796 26.4166 0.0944649 22.2413C0.189192 18.5096 3.68549 16.3132 6.78134 17.9551C8.42615 18.8252 9.27008 20.2198 9.23994 22.1091C9.21842 23.3118 9.23994 24.5144 9.23994 25.7171C9.23994 26.9155 9.23994 28.1097 9.23994 28.8177L9.23564 28.8219ZM2.77266 29.4403H2.76405C2.76405 31.5642 2.62626 33.7009 2.82002 35.8077C2.92336 36.9038 3.34964 38.2003 4.09023 38.9722C7.72861 42.7722 11.5177 46.4314 15.2637 50.129C16.2584 51.1099 21.6018 51.8008 22.7816 51.1142C22.9539 51.0161 23.2122 50.8199 23.2036 50.6877C23.0141 48.6448 23.5308 45.9921 22.4286 44.6828C18.9624 40.5673 14.8891 36.9549 11.0441 33.155C10.1657 32.285 8.9859 31.9395 8.3099 33.0526C7.90946 33.7137 8.08169 35.0656 8.52088 35.7992C9.15383 36.8654 10.3681 37.5776 11.1173 38.5926C11.4876 39.0959 11.3713 39.9489 11.4746 40.6398C10.7211 40.5545 9.77386 40.7251 9.24856 40.337C8.11614 39.501 7.14733 38.422 6.19576 37.3644C4.67151 35.667 4.57678 33.6582 5.72643 31.6708C6.09672 31.0268 6.48424 30.2848 6.51438 29.5768C6.61342 27.2439 6.54022 24.9025 6.55314 22.5654C6.55744 21.3073 6.23881 20.1771 4.77054 20.1601C3.22477 20.1387 2.77266 21.2774 2.77266 22.6294C2.77266 24.894 2.77266 27.1629 2.77266 29.4275V29.4403ZM19.4059 53.9375V53.9289C18.4758 53.9289 17.5501 53.9289 16.6201 53.9289C12.6673 53.9204 12.719 53.9162 12.8654 57.9336C12.9128 59.2173 13.3606 59.6907 14.6394 59.6609C17.1367 59.6054 19.6384 59.6822 22.1401 59.6395C26.6827 59.5628 26.0885 60.4627 26.1703 55.5411C26.1918 54.3384 25.7311 53.8863 24.547 53.9204C22.8333 53.9673 21.1196 53.9332 19.4059 53.9332V53.9375Z" fill="#01A3D6"/>
<path d="M49.3614 50.9432C50.0288 52.2908 50.7436 53.1182 50.8125 53.9968C50.9847 56.2486 50.8297 58.5218 50.8857 60.7864C50.9201 62.2791 50.369 63.0169 48.7758 63.0041C43.9921 62.9657 39.2084 62.97 34.429 63.0041C32.8961 63.0169 32.1943 62.3772 32.2244 60.8503C32.2632 58.8715 32.2804 56.8883 32.2201 54.9052C32.1641 53.1097 32.2201 51.4848 34.851 51.8089C34.9026 50.8195 35.0705 50.039 34.9586 49.3012C34.4634 46.0471 35.7595 43.7143 38.2181 41.5691C41.4775 38.7202 44.4012 35.496 47.5099 32.4722C48.2118 31.7898 49.0084 30.8985 49.8781 30.7449C51.8459 30.3995 51.9234 29.2139 51.8545 27.6913C51.7813 25.9982 51.7942 24.2923 51.8545 22.5991C51.9449 20.0104 53.6198 18.2533 56.0483 18.0997C58.4725 17.9462 60.7761 19.5071 60.8665 21.9424C61.0645 27.38 61.0344 32.8347 60.8363 38.2766C60.7976 39.3684 59.7943 40.5796 58.9418 41.4582C55.678 44.8146 52.2937 48.0601 49.3571 50.9474L49.3614 50.9432ZM37.9511 51.8345C40.0566 51.8345 41.977 51.9113 43.8845 51.7919C44.5045 51.7535 45.2064 51.3142 45.6757 50.8579C49.4949 47.1389 53.2797 43.3859 57.0343 39.603C57.5596 39.0742 58.2141 38.3363 58.227 37.6838C58.3261 32.6641 58.3519 27.6359 58.1969 22.6162C58.1797 21.9935 56.9568 21.405 56.2937 20.8036C55.7125 21.4732 54.7437 22.0874 54.6274 22.8294C54.3691 24.4885 54.3863 26.2285 54.5757 27.9088C54.7609 29.5977 55.157 31.2909 55.7038 32.9072C56.2937 34.6601 56.3239 36.2764 55.1053 37.6966C54.0461 38.9334 52.8793 40.102 51.6263 41.1426C51.2172 41.4795 50.3905 41.3217 49.7533 41.39C49.7662 40.7033 49.525 39.8461 49.848 39.3599C50.4594 38.4302 51.3852 37.7009 52.1989 36.9119C53.185 35.9523 54.0332 34.8477 52.8147 33.645C51.6047 32.4509 50.4852 33.2697 49.5078 34.2464C46.4895 37.2573 43.6649 40.5071 40.371 43.1854C37.4129 45.5865 37.4904 48.3928 37.9554 51.8388L37.9511 51.8345ZM35.0964 54.6408V60.1467H48.0266V54.6408H35.0964Z" fill="#01A3D6"/>
<path d="M25.1933 30.4253C22.7261 30.8859 20.9779 32.9544 18.4634 31.0309C15.2728 28.5915 15.7593 25.9814 17.7012 23.0728C15.1737 21.7208 12.2716 21.6739 12.2501 17.7503C12.2286 13.8181 15.1651 13.7669 17.3955 12.4789C17.2104 11.9117 17.0984 11.4426 16.909 11.0076C15.346 7.47631 15.4493 7.51043 18.0586 4.76815C19.6388 3.10913 21.1975 3.34796 22.8682 4.22225C24.5733 5.1136 25.5808 4.85344 26.1406 2.91721C26.5755 1.39893 27.1653 -0.0639015 29.2536 7.09179e-05C31.596 0.0768378 34.1278 -0.362439 34.8641 2.82765C35.299 4.7255 36.328 5.22448 38.0762 4.15828C39.8674 3.07074 41.4347 3.18163 43.0752 4.74682C44.8277 6.4101 45.7577 7.98809 44.3583 10.2826C44.0053 10.8626 43.8718 11.5748 43.6048 12.3254C45.874 13.6219 48.8148 13.6262 48.8234 17.5584C48.832 21.4777 45.8955 21.5332 43.6263 22.9107C44.4014 25.3417 46.3304 27.4613 43.5531 30.1822C40.7931 32.8861 38.6359 31.0352 36.0008 30.34C34.6832 32.5663 34.4766 35.5133 30.5152 35.5005C26.5884 35.4877 26.597 32.4213 25.1976 30.4211L25.1933 30.4253ZM30.6444 33.3979C31.5443 32.336 32.2892 31.7688 32.6208 31.0181C34.1881 27.457 35.0837 27.0092 38.6187 28.4251C39.7425 28.8772 40.6424 29.116 41.693 28.0839C42.8255 26.9751 42.016 26.1562 41.6069 25.2606C40.2721 22.3094 40.7458 21.0683 43.7426 19.8486C44.0053 19.7419 44.3583 19.7036 44.5176 19.5116C45.0343 18.8847 45.8697 18.1896 45.8481 17.5413C45.8309 16.893 45.0645 15.9718 44.4014 15.6818C40.5219 13.9887 40.143 13.2978 41.7619 9.48931C42.2011 8.44869 42.4336 7.49337 41.3228 6.93894C40.6554 6.60629 39.6564 6.50393 38.9632 6.74276C37.4174 7.27586 35.8759 8.32927 34.3818 7.0285C33.5293 6.28642 33.1891 4.99845 32.4313 4.11563C31.9189 3.51855 31.0965 2.89162 30.3818 2.85324C29.7876 2.81912 28.8618 3.49296 28.5776 4.08577C26.6788 8.05206 26.2181 8.23118 22.0716 6.83659C21.3267 6.58496 20.2201 6.87923 19.4709 7.2716C18.205 7.93691 18.9542 8.93488 19.3633 9.82196C20.8789 13.1016 20.4268 14.219 16.9951 15.6179C16.0048 16.023 15.0962 16.2704 15.079 17.7332C15.0575 19.3624 16.1641 19.5116 17.2018 19.8912C20.2416 21.0001 20.8186 22.2539 19.6087 25.1881C19.5011 25.4483 19.2728 25.7298 19.3116 25.9729C19.4494 26.8429 19.458 27.8707 19.9575 28.4934C20.2589 28.8729 21.4731 28.8644 22.1017 28.6043C25.9942 26.9879 26.7649 27.2864 28.6379 31.1845C28.9695 31.8754 29.7058 32.3786 30.653 33.4022L30.6444 33.3979Z" fill="#01A3D6"/>
<path d="M23.4712 17.5795C23.5186 13.7198 26.7953 10.5809 30.6705 10.679C34.606 10.7814 37.6975 13.9714 37.6071 17.8354C37.521 21.6055 34.3304 24.6506 30.5155 24.6164C26.5585 24.5781 23.4239 21.4477 23.4712 17.5795ZM30.6231 13.3701C28.2679 13.3147 26.2269 15.2466 26.1839 17.571C26.1408 19.8995 28.0827 21.8912 30.4552 21.9424C32.8105 21.9936 34.8514 20.0616 34.8902 17.733C34.9332 15.3959 33.0042 13.4255 30.6188 13.3701H30.6231Z" fill="#01A3D6"/>
</svg>
