<svg width="59" height="59" viewBox="0 0 59 59" fill="none" xmlns="http://www.w3.org/2000/svg">
<path d="M53.9879 58.9997H5.077C4.37906 58.7249 3.64716 58.5087 2.98629 58.1628C1.27543 57.2703 0.518817 55.6737 0 53.9227V5.01495C0.0802931 4.80804 0.182204 4.60422 0.240879 4.38804C0.917194 1.79705 3.08202 0.0213336 5.77493 0.0151572C21.605 -0.00337196 37.4351 -0.00646016 53.2652 0.0182454C56.4862 0.0244218 58.9753 2.5166 58.9815 5.7345C59.0062 21.5646 59 37.3947 58.9815 53.2279C58.9815 55.2445 58.0859 56.8781 56.3812 57.9652C55.6555 58.4253 54.7877 58.6631 53.9848 59.0028L53.9879 58.9997ZM29.4151 56.9893C37.1387 56.9893 44.8653 56.9924 52.5889 56.9893C55.6493 56.9893 57.0513 55.6089 57.0513 52.5886C57.0544 37.1754 57.0544 21.7653 57.0513 6.35214C57.0513 3.32879 55.6493 1.94837 52.5951 1.94528C37.222 1.94219 21.849 1.94219 6.47595 1.94528C3.37849 1.94528 2.01042 3.32879 2.01042 6.46022C2.01042 21.7962 2.01042 37.1291 2.01042 52.4651C2.01042 55.6398 3.37231 56.9862 6.58404 56.9862C14.1934 56.9862 21.8027 56.9862 29.412 56.9862L29.4151 56.9893Z" fill="#01A3D6"/>
<path d="M6.77778 6.75364V52.2891H8.17982C22.787 52.2891 37.3973 52.2891 52.0044 52.2891C52.3132 52.2891 52.619 52.2984 52.9278 52.2891C53.6103 52.2706 54.2156 52.4126 54.1909 53.2464C54.1662 54.0741 53.5454 54.1575 52.8722 54.1544C45.4513 54.1482 38.0334 54.1513 30.6125 54.1513C22.577 54.1513 14.5446 54.1513 6.50911 54.1513C4.94957 54.1513 4.84766 54.0525 4.84766 52.53C4.84766 37.1539 4.84766 21.7746 4.84766 6.3985C4.84766 4.91308 4.96501 4.78955 6.40411 4.78955C21.8204 4.78955 37.2367 4.78955 52.6499 4.78955C54.089 4.78955 54.2094 4.91308 54.2094 6.39541C54.2094 20.1966 54.2094 33.9977 54.2094 47.7989C54.2094 48.0675 54.3051 48.4165 54.1723 48.5894C53.9222 48.9106 53.5609 49.2966 53.2088 49.3337C52.9556 49.3615 52.5418 48.9168 52.3966 48.5925C52.2515 48.2714 52.3503 47.839 52.3503 47.453C52.3503 34.3837 52.3503 21.3114 52.3503 8.24215V6.75982H6.77778V6.75364Z" fill="#01A3D6"/>
<path d="M30.4493 30.3878C30.4493 36.2585 30.4493 41.9469 30.4493 47.6354C30.4493 47.9442 30.5543 48.3179 30.4154 48.5433C30.2054 48.883 29.8224 49.3339 29.5167 49.3277C29.2141 49.3246 28.828 48.8645 28.6458 48.5155C28.5038 48.2438 28.6119 47.8392 28.6119 47.4933C28.6119 41.8481 28.6119 36.1998 28.6119 30.3878H27.3364C22.0309 30.3878 16.7254 30.3878 11.423 30.3878C11.1543 30.3878 10.83 30.4835 10.6293 30.3662C10.2525 30.1469 9.94681 29.8041 9.61328 29.5138C9.95607 29.1927 10.2803 28.6275 10.6478 28.5966C12.0221 28.4855 13.4118 28.5503 14.7953 28.5503C18.9458 28.5503 23.0994 28.5503 27.25 28.5503C27.6638 28.5503 28.0776 28.5503 28.615 28.5503C28.615 28.0377 28.615 27.627 28.615 27.2162C28.615 21.9107 28.615 16.6052 28.615 11.3027C28.615 10.9939 28.51 10.6203 28.6489 10.3948C28.8589 10.0551 29.2419 9.60424 29.5445 9.61041C29.8502 9.61659 30.2332 10.0736 30.4185 10.4226C30.5605 10.6944 30.4524 11.0989 30.4524 11.4448C30.4524 17.09 30.4524 22.7383 30.4524 28.5503C30.9188 28.5503 31.3233 28.5503 31.7279 28.5503C37.0704 28.5503 42.413 28.5503 47.7587 28.5503C48.0274 28.5503 48.3578 28.4577 48.5524 28.5781C48.8951 28.7912 49.4387 29.1958 49.3923 29.4119C49.3151 29.7794 48.8643 30.3137 48.5338 30.3415C47.2368 30.4496 45.9243 30.3909 44.618 30.3909C40.3501 30.3909 36.0853 30.3909 31.8174 30.3909H30.4524L30.4493 30.3878Z" fill="#01A3D6"/>
<path d="M19.1675 17.2474C20.4954 17.2474 21.6442 17.2567 22.7931 17.2443C23.4755 17.2381 24.0222 17.5408 23.9017 18.214C23.8369 18.5661 23.2254 19.0262 22.8239 19.0663C21.6844 19.1806 20.5263 19.1065 19.1675 19.1065C19.1675 19.9063 19.254 20.6629 19.1459 21.3948C19.0162 22.2688 19.7728 23.8036 18.2719 23.8129C16.6692 23.8222 17.469 22.241 17.3269 21.3393C17.2219 20.6691 17.3053 19.9681 17.3053 19.1096C16.1442 19.1096 15.0448 19.0941 13.9485 19.1158C13.2351 19.1312 12.5433 19.0478 12.5711 18.1584C12.5989 17.2845 13.2999 17.2289 14.004 17.2412C15.0695 17.2628 16.1318 17.2474 17.3053 17.2474C17.3053 15.9905 17.2219 14.8417 17.3486 13.7114C17.398 13.276 17.8674 12.6244 18.2411 12.5502C18.9143 12.4144 19.186 12.9919 19.1737 13.6713C19.1521 14.8139 19.1675 15.9596 19.1675 17.2474Z" fill="#01A3D6"/>
<path d="M40.8418 37.1233C42.2964 37.1233 43.754 37.1326 45.2086 37.1202C45.9127 37.1141 46.4902 37.3518 46.4902 38.1054C46.4902 38.8682 45.8818 39.0905 45.1993 39.0936C42.2871 39.0936 39.378 39.0967 36.4659 39.0936C35.7525 39.0936 35.0885 38.8867 35.1287 38.0374C35.1657 37.2654 35.8019 37.1202 36.4751 37.1233C37.9297 37.1326 39.3873 37.1264 40.8418 37.1264V37.1233Z" fill="#01A3D6"/>
<path d="M40.8193 42.6417C42.2738 42.6417 43.7315 42.6541 45.186 42.6356C45.884 42.6263 46.4676 42.8301 46.4892 43.5898C46.5139 44.3804 45.8994 44.5749 45.22 44.5749C42.2708 44.5749 39.3215 44.5749 36.3723 44.5749C35.6898 44.5749 35.0876 44.3526 35.1247 43.5651C35.1617 42.79 35.7701 42.6325 36.4526 42.6386C37.9071 42.6541 39.3617 42.6417 40.8193 42.6417Z" fill="#01A3D6"/>
<path d="M18.2114 41.811C16.7908 41.811 15.364 41.8789 13.9527 41.7678C13.5173 41.7338 12.841 41.2613 12.77 40.8907C12.6186 40.1279 13.2764 39.8901 13.9682 39.8901C16.8093 39.8901 19.6505 39.8901 22.4916 39.8901C23.1741 39.8901 23.7608 40.0476 23.7639 40.866C23.767 41.7184 23.1309 41.8079 22.4762 41.811C21.0556 41.8141 19.635 41.811 18.2144 41.811H18.2114Z" fill="#01A3D6"/>
<path d="M40.7216 19.1065C39.2671 19.1065 37.8125 19.0942 36.358 19.1127C35.7095 19.122 35.1505 18.9552 35.1258 18.2356C35.1011 17.4543 35.6539 17.2382 36.3642 17.2412C39.3505 17.2536 42.3367 17.2536 45.323 17.2412C46.0024 17.2382 46.4904 17.4883 46.4935 18.1893C46.4935 18.9027 45.987 19.125 45.3138 19.1127C43.782 19.0911 42.2503 19.1065 40.7185 19.1065H40.7216Z" fill="#01A3D6"/>
<path d="M17.2476 37.7287C16.9079 37.7009 16.5065 37.775 16.2409 37.6206C15.9259 37.4353 15.5028 37.0277 15.5306 36.759C15.5677 36.4069 15.9475 35.9005 16.2749 35.814C16.8832 35.6565 17.5842 35.6411 18.1957 35.7862C18.5663 35.8727 19.0758 36.3606 19.0913 36.6849C19.1067 37.003 18.6219 37.4322 18.2575 37.6515C18.0073 37.8028 17.5904 37.6793 17.2476 37.6793C17.2476 37.6947 17.2476 37.7102 17.2476 37.7256V37.7287Z" fill="#01A3D6"/>
<path d="M19.2527 44.0316C19.5183 44.0316 19.8518 43.9328 20.0371 44.0532C20.4015 44.291 20.9172 44.6431 20.9358 44.9704C20.9543 45.2761 20.4602 45.798 20.0989 45.9C19.5337 46.0605 18.8636 46.0575 18.2954 45.9092C17.9186 45.8104 17.6407 45.3317 17.3164 45.0229C17.6561 44.6925 17.9588 44.3003 18.354 44.0563C18.5733 43.9204 18.947 44.0316 19.2527 44.0316Z" fill="#01A3D6"/>
</svg>
