<svg width="66" height="64" viewBox="0 0 66 64" fill="none" xmlns="http://www.w3.org/2000/svg">
<path d="M5.14774 18.5258C3.83862 18.9683 2.69131 19.3518 1.54399 19.7353C0.837954 19.9566 0.249588 19.6763 0.0583688 19.0568C-0.103432 18.5258 0.161333 17.9506 0.764408 17.7441C2.85311 17.0066 4.95652 16.2986 7.07464 15.5906C7.73655 15.3693 8.33963 15.7823 8.48672 16.5051C8.92799 18.5996 9.36927 20.6793 9.81054 22.7738C9.97234 23.5261 9.67816 24.0866 9.04567 24.2488C8.44259 24.4111 7.88364 24.0128 7.70713 23.2753C7.45708 22.2133 7.23644 21.1366 6.83929 20.0303C6.5304 20.8563 6.17738 21.6823 5.89791 22.5231C1.16156 36.8453 7.63359 52.2442 21.1513 58.8817C37.655 66.9794 57.6889 57.9672 62.7194 40.1787C67.2939 24.0276 57.6594 7.19788 41.4205 3.1269C34.2425 1.3274 27.2409 1.9764 20.5335 5.25089C19.7392 5.63439 19.1361 5.51639 18.8273 4.88214C18.5184 4.26264 18.7831 3.71689 19.5921 3.3039C23.3283 1.37165 27.2997 0.398157 31.4624 0.103158C37.1107 -0.30984 42.5531 0.545657 47.6425 3.05315C57.38 7.83213 63.4843 15.5758 65.4553 26.2843C67.9853 40.046 61.6015 53.3062 49.3782 60.0912C43.9064 63.1297 37.9933 64.4424 31.7566 63.8672C19.9304 62.7757 11.1049 56.9347 5.66256 46.3737C1.17626 37.6565 1.05859 28.6 4.73588 19.4993C4.85356 19.2191 4.97123 18.9536 5.14774 18.5258Z" fill="#01A3D6"/>
<path d="M56.1153 32.0221C56.1153 44.2055 46.2161 54.088 34.0663 54.0585C21.9165 54.029 12.0761 44.117 12.1055 31.9336C12.135 19.7796 21.9901 9.92667 34.1104 9.94142C46.2602 9.94142 56.1153 19.8386 56.1006 32.0221H56.1153ZM14.2825 31.9926C14.2825 42.9518 23.1521 51.8755 34.081 51.905C45.0393 51.9345 53.9531 43.0108 53.9678 32.0221C53.9678 21.0481 45.1129 12.1392 34.1693 12.1244C23.2109 12.1097 14.2972 21.0186 14.2825 32.0073V31.9926Z" fill="#01A3D6"/>
<path d="M35.1847 24.8241C35.1847 26.4171 35.1847 27.9953 35.1994 29.5883C35.1994 29.8391 35.3465 30.1488 35.523 30.3406C36.0231 30.8421 36.2585 31.4173 36.2879 32.1253C36.2879 32.4203 36.435 32.7891 36.6409 32.9956C38.5237 34.9131 40.4359 36.8011 42.3039 38.7333C42.5687 39.0135 42.8482 39.4413 42.8188 39.7805C42.8041 40.105 42.4657 40.5918 42.1568 40.695C41.8185 40.7983 41.2596 40.695 40.9948 40.4443C40.0681 39.6183 39.2297 38.7038 38.3472 37.8336C37.2587 36.7421 36.1849 35.6358 35.0817 34.5738C34.8611 34.3673 34.5081 34.2198 34.2139 34.2051C33.2578 34.1756 32.4194 33.6888 32.0811 32.8481C31.7281 31.9926 31.9487 31.0928 32.6106 30.3701C32.8312 30.1341 32.993 29.7506 32.993 29.4408C33.0225 26.3138 32.993 23.1869 33.0078 20.0599C33.0078 19.2486 33.4637 18.7471 34.1256 18.7766C34.7434 18.8061 35.1553 19.2634 35.17 20.0009C35.17 21.6086 35.17 23.2164 35.17 24.8241H35.1847Z" fill="#01A3D6"/>
<path d="M35.1852 15.4285C35.1852 15.7972 35.1999 16.166 35.1852 16.52C35.1411 17.169 34.6851 17.6115 34.0968 17.6115C33.5231 17.6115 33.0671 17.1837 33.0377 16.5642C33.0083 15.812 33.0083 15.0597 33.0377 14.3075C33.0671 13.688 33.5231 13.2603 34.082 13.2603C34.6704 13.2603 35.1411 13.688 35.1705 14.337C35.1852 14.7057 35.1705 15.0745 35.1705 15.4285H35.1852Z" fill="#01A3D6"/>
<path d="M17.5341 33.0696C17.1664 33.0696 16.7987 33.0991 16.4457 33.0696C15.8426 33.0253 15.416 32.5533 15.416 31.9928C15.416 31.4176 15.8426 30.9603 16.4457 30.9308C17.1958 30.9013 17.946 30.9013 18.6962 30.9308C19.3139 30.9603 19.7405 31.4028 19.7552 31.9781C19.7699 32.5681 19.3287 33.0401 18.6814 33.0843C18.299 33.1138 17.9019 33.0843 17.5194 33.0843L17.5341 33.0696Z" fill="#01A3D6"/>
<path d="M50.6428 30.916C51.0253 30.916 51.4224 30.8865 51.8049 30.916C52.4079 30.9603 52.8492 31.447 52.8051 32.0075C52.761 32.6123 52.4226 33.0105 51.8196 33.04C51.0547 33.0843 50.2751 33.0843 49.4955 33.04C48.8925 33.0105 48.4659 32.5385 48.4512 31.978C48.4512 31.4028 48.863 30.9455 49.4808 30.9013C49.8633 30.8718 50.2604 30.9013 50.6428 30.9013V30.916Z" fill="#01A3D6"/>
<path d="M35.1842 48.557C35.1842 48.9405 35.2136 49.3388 35.1842 49.7223C35.1401 50.327 34.6694 50.7548 34.1104 50.74C33.5368 50.74 33.0808 50.3123 33.0514 49.6928C33.0219 48.9405 33.0219 48.1883 33.0514 47.436C33.0808 46.8165 33.5368 46.3888 34.0957 46.374C34.6841 46.374 35.1548 46.8018 35.1989 47.4508C35.2283 47.8195 35.1989 48.1883 35.1989 48.5423L35.1842 48.557Z" fill="#01A3D6"/>
<path d="M26.933 17.6705C26.933 18.2752 26.4035 18.7472 25.8004 18.7177C25.2268 18.6882 24.7708 18.2015 24.7855 17.6262C24.7855 17.0362 25.3297 16.5347 25.9181 16.5642C26.4771 16.5937 26.9477 17.0952 26.933 17.6705Z" fill="#01A3D6"/>
<path d="M42.318 18.7177C41.7444 18.6882 41.2884 18.2015 41.3031 17.6262C41.3031 17.0362 41.8473 16.5347 42.4357 16.5642C42.9946 16.5937 43.4653 17.0952 43.4506 17.6557C43.4506 18.2605 42.9211 18.7325 42.318 18.703V18.7177Z" fill="#01A3D6"/>
<path d="M20.8714 23.762C20.842 24.3372 20.3566 24.7945 19.783 24.7945C19.1946 24.7945 18.6945 24.2487 18.7239 23.6587C18.7533 23.0982 19.2534 22.6262 19.8124 22.641C20.4154 22.641 20.9008 23.172 20.8714 23.7767V23.762Z" fill="#01A3D6"/>
<path d="M48.4087 22.6412C48.9676 22.6412 49.4677 23.0985 49.4972 23.6737C49.5266 24.2637 49.0265 24.7947 48.4381 24.7947C47.835 24.7947 47.3496 24.2932 47.3496 23.6885C47.3496 23.1132 47.835 22.6412 48.4087 22.6265V22.6412Z" fill="#01A3D6"/>
<path d="M43.4503 46.3296C43.4503 46.9196 42.9502 47.4358 42.3618 47.4211C41.7881 47.4211 41.3174 46.9196 41.3027 46.3591C41.3027 45.7543 41.7881 45.2676 42.3912 45.2676C42.9649 45.2676 43.4356 45.7543 43.4503 46.3296Z" fill="#01A3D6"/>
<path d="M19.769 41.3588C19.1953 41.3441 18.7246 40.8573 18.7246 40.2821C18.7246 39.6921 19.2394 39.1758 19.8278 39.2053C20.4309 39.2201 20.9016 39.7511 20.8721 40.3558C20.8427 40.9311 20.3426 41.3883 19.769 41.3588Z" fill="#01A3D6"/>
<path d="M49.4972 40.2674C49.4972 40.8574 48.9823 41.3736 48.394 41.3589C47.8203 41.3441 47.3496 40.8721 47.3496 40.2969C47.3496 39.6921 47.8497 39.1906 48.4381 39.2054C49.0117 39.2054 49.4824 39.7069 49.4824 40.2674H49.4972Z" fill="#01A3D6"/>
<path d="M25.874 45.2674C26.4476 45.2674 26.9183 45.7542 26.9183 46.3294C26.9183 46.9194 26.4035 47.4357 25.8152 47.4209C25.2268 47.4062 24.7414 46.8752 24.7708 46.2852C24.8002 45.7099 25.3003 45.2527 25.874 45.2674Z" fill="#01A3D6"/>
</svg>
